<svg width="855" height="591" viewBox="0 0 855 591" fill="none" xmlns="http://www.w3.org/2000/svg">
<mask id="path-1-outside-1_48_391" maskUnits="userSpaceOnUse" x="385" y="124" width="260" height="336" fill="black">
<rect fill="white" x="385" y="124" width="260" height="336"/>
<path d="M518.25 131.25C532.583 131.25 546.833 132.5 561 135C575 137.5 588.083 141.75 600.25 147.75C612.417 153.75 622.667 162 631 172.5L586.5 218.75C582.667 214.25 578 209.833 572.5 205.5C566.833 201.167 559.917 197.583 551.75 194.75C543.417 191.917 533.333 190.5 521.5 190.5C510.5 190.5 500.917 192.417 492.75 196.25C484.583 200.083 478.25 205.667 473.75 213C469.083 220.333 466.75 229.25 466.75 239.75V244.75L392 244.75V235.25C392 212.583 397.667 193.5 409 178C420.167 162.5 435.25 150.833 454.25 143C473.25 135.167 494.583 131.25 518.25 131.25ZM466.75 241V274.25C468.25 270.917 472.083 266.083 478.25 259.75C484.25 253.417 492.25 247.667 502.25 242.5C512.25 237.5 523.917 235 537.25 235C557.25 235 574.75 239.833 589.75 249.5C604.75 259.333 616.417 272.417 624.75 288.75C633.083 305.25 637.25 323.5 637.25 343.5C637.25 363.5 633.083 381.667 624.75 398C616.417 414.5 604.75 427.667 589.75 437.5C574.75 447.333 557.25 452.25 537.25 452.25C524.417 452.25 513.167 450.167 503.5 446C493.833 442 486 437.167 480 431.5C474 426 469.833 420.917 467.5 416.25V446.25H392L392 241L466.75 241ZM562.75 343.5C562.75 334.167 560.583 325.75 556.25 318.25C551.917 310.917 546.167 305.167 539 301C531.667 296.833 523.583 294.75 514.75 294.75C505.583 294.75 497.5 296.833 490.5 301C483.5 305.167 478 310.917 474 318.25C469.833 325.75 467.75 334.167 467.75 343.5C467.75 352.833 469.833 361.167 474 368.5C478 376 483.5 381.833 490.5 386C497.5 390.333 505.583 392.5 514.75 392.5C523.583 392.5 531.667 390.333 539 386C546.167 381.833 551.917 376 556.25 368.5C560.583 361.167 562.75 352.833 562.75 343.5Z"/>
</mask>
<path d="M561 135L562.231 128.109L562.223 128.108L562.216 128.106L561 135ZM600.25 147.75L603.346 141.472L603.346 141.472L600.25 147.75ZM631 172.5L636.044 177.353L640.288 172.943L636.483 168.148L631 172.5ZM586.5 218.75L581.171 223.289L586.184 229.174L591.544 223.603L586.5 218.75ZM572.5 205.5L576.832 200.001L576.792 199.97L576.752 199.939L572.5 205.5ZM551.75 194.75L554.044 188.137L554.024 188.129L554.003 188.122L551.75 194.75ZM492.75 196.25L489.776 189.913L489.776 189.913L492.75 196.25ZM473.75 213L479.656 216.758L479.686 216.71L479.716 216.661L473.75 213ZM466.75 244.75V251.75H473.75V244.75H466.75ZM392 244.75H385V251.75H392V244.75ZM409 178L414.651 182.132L414.665 182.112L414.68 182.092L409 178ZM466.75 241H473.75V234H466.75V241ZM466.75 274.25L459.75 274.25L473.133 277.122L466.75 274.25ZM478.25 259.75L483.265 264.633L483.299 264.599L483.332 264.564L478.25 259.75ZM502.25 242.5L499.119 236.239L499.078 236.26L499.037 236.281L502.25 242.5ZM589.75 249.5L593.588 243.646L593.565 243.631L593.542 243.616L589.75 249.5ZM624.75 288.75L630.998 285.594L630.992 285.581L630.985 285.569L624.75 288.75ZM624.75 398L618.515 394.819L618.508 394.831L618.502 394.844L624.75 398ZM589.75 437.5L585.912 431.646L585.912 431.646L589.75 437.5ZM503.5 446L506.271 439.572L506.224 439.551L506.176 439.532L503.5 446ZM480 431.5L484.806 426.411L484.768 426.375L484.73 426.34L480 431.5ZM467.5 416.25L473.761 413.119L460.5 416.25H467.5ZM467.5 446.25V453.25H474.5V446.25H467.5ZM392 446.25H385V453.25H392V446.25ZM392 241V234H385V241H392ZM556.25 318.25L562.311 314.748L562.294 314.718L562.276 314.689L556.25 318.25ZM539 301L542.518 294.948L542.488 294.931L542.458 294.914L539 301ZM490.5 301L494.08 307.015L490.5 301ZM474 318.25L480.119 321.649L480.132 321.626L480.145 321.602L474 318.25ZM474 368.5L480.176 365.206L480.132 365.123L480.086 365.042L474 368.5ZM490.5 386L494.184 380.048L494.133 380.016L494.08 379.985L490.5 386ZM539 386L535.482 379.948L535.46 379.961L535.439 379.973L539 386ZM556.25 368.5L550.223 364.939L550.206 364.968L550.189 364.998L556.25 368.5ZM518.25 138.25C532.174 138.25 546.017 139.464 559.783 141.893L562.216 128.106C547.65 125.536 532.993 124.25 518.25 124.25V138.25ZM559.769 141.891C573.153 144.281 585.605 148.333 597.154 154.028L603.346 141.472C590.561 135.167 576.847 130.719 562.231 128.109L559.769 141.891ZM597.154 154.028C608.404 159.576 617.835 167.172 625.517 176.852L636.483 168.148C627.498 156.828 616.429 147.924 603.346 141.472L597.154 154.028ZM625.956 167.646L581.456 213.897L591.544 223.603L636.044 177.353L625.956 167.646ZM591.829 214.211C587.647 209.301 582.631 204.57 576.832 200.001L568.168 210.998C573.369 215.096 577.687 219.198 581.171 223.289L591.829 214.211ZM576.752 199.939C570.383 195.069 562.771 191.164 554.044 188.137L549.456 201.363C557.062 204.002 563.284 207.264 568.248 211.06L576.752 199.939ZM554.003 188.122C544.743 184.974 533.853 183.5 521.5 183.5V197.5C532.813 197.5 542.09 198.859 549.497 201.377L554.003 188.122ZM521.5 183.5C509.693 183.5 499.054 185.558 489.776 189.913L495.724 202.587C502.779 199.275 511.307 197.5 521.5 197.5V183.5ZM489.776 189.913C480.435 194.298 473.034 200.782 467.784 209.339L479.716 216.661C483.466 210.551 488.731 205.869 495.724 202.587L489.776 189.913ZM467.844 209.242C462.327 217.913 459.75 228.198 459.75 239.75L473.75 239.75C473.75 230.302 475.84 222.754 479.656 216.758L467.844 209.242ZM459.75 239.75V244.75L473.75 244.75V239.75L459.75 239.75ZM466.75 237.75L392 237.75V251.75L466.75 251.75V237.75ZM399 244.75V235.25H385V244.75H399ZM399 235.25C399 213.792 404.344 196.227 414.651 182.132L403.349 173.868C390.989 190.773 385 211.374 385 235.25H399ZM414.68 182.092C425.026 167.73 439.029 156.847 456.918 149.471L451.582 136.528C431.471 144.82 415.307 157.269 403.32 173.908L414.68 182.092ZM456.918 149.471C474.953 142.036 495.361 138.25 518.25 138.25V124.25C493.805 124.25 471.547 128.297 451.582 136.528L456.918 149.471ZM459.75 241V274.25L473.75 274.25V241L459.75 241ZM473.133 277.122C474.073 275.034 477.086 270.98 483.265 264.633L473.235 254.867C467.081 261.187 462.427 266.799 460.367 271.377L473.133 277.122ZM483.332 264.564C488.661 258.939 495.968 253.624 505.463 248.719L499.037 236.281C488.531 241.709 479.839 247.895 473.168 254.936L483.332 264.564ZM505.38 248.761C514.238 244.332 524.796 242 537.25 242V228C523.037 228 510.261 230.668 499.119 236.239L505.38 248.761ZM537.25 242C556.073 242 572.222 246.532 585.958 255.384L593.542 243.616C577.278 233.135 558.427 228 537.25 228V242ZM585.912 255.354C599.871 264.505 610.722 276.657 618.515 291.931L630.985 285.569C622.112 268.176 609.629 254.162 593.588 243.646L585.912 255.354ZM618.502 291.906C626.301 307.348 630.25 324.504 630.25 343.5H644.25C644.25 322.495 639.866 303.151 630.998 285.594L618.502 291.906ZM630.25 343.5C630.25 362.496 626.301 379.558 618.515 394.819L630.985 401.181C639.866 383.776 644.25 364.504 644.25 343.5H630.25ZM618.502 394.844C610.704 410.284 599.854 422.506 585.912 431.646L593.588 443.354C609.646 432.827 622.13 418.716 630.998 401.156L618.502 394.844ZM585.912 431.646C572.181 440.647 556.049 445.25 537.25 445.25V459.25C558.451 459.25 577.319 454.019 593.588 443.354L585.912 431.646ZM537.25 445.25C525.166 445.25 514.893 443.288 506.271 439.572L500.729 452.428C511.44 457.045 523.667 459.25 537.25 459.25V445.25ZM506.176 439.532C497.096 435.774 490.045 431.359 484.806 426.411L475.194 436.589C481.955 442.975 490.571 448.226 500.824 452.468L506.176 439.532ZM484.73 426.34C479.047 421.13 475.56 416.717 473.761 413.119L461.239 419.38C464.107 425.117 468.953 430.87 475.27 436.66L484.73 426.34ZM460.5 416.25V446.25H474.5V416.25H460.5ZM467.5 439.25H392V453.25H467.5V439.25ZM399 446.25L399 241H385L385 446.25H399ZM392 248L466.75 248V234L392 234V248ZM569.75 343.5C569.75 333.036 567.307 323.395 562.311 314.748L550.189 321.752C553.86 328.105 555.75 335.298 555.75 343.5L569.75 343.5ZM562.276 314.689C557.351 306.354 550.75 299.734 542.518 294.948L535.482 307.051C541.584 310.599 546.482 315.479 550.223 321.811L562.276 314.689ZM542.458 294.914C534.02 290.119 524.736 287.75 514.75 287.75V301.75C522.431 301.75 529.313 303.547 535.542 307.086L542.458 294.914ZM514.75 287.75C504.484 287.75 495.133 290.096 486.92 294.985L494.08 307.015C499.866 303.571 506.682 301.75 514.75 301.75V287.75ZM486.92 294.985C478.813 299.81 472.439 306.492 467.855 314.898L480.145 321.602C483.56 315.341 488.187 310.523 494.08 307.015L486.92 294.985ZM467.881 314.85C463.086 323.48 460.75 333.084 460.75 343.5H474.75C474.75 335.249 476.58 328.02 480.119 321.649L467.881 314.85ZM460.75 343.5C460.75 353.913 463.086 363.461 467.914 371.958L480.086 365.042C476.581 358.872 474.75 351.753 474.75 343.5H460.75ZM467.823 371.794C472.397 380.37 478.773 387.166 486.92 392.015L494.08 379.985C488.227 376.5 483.603 371.63 480.176 365.206L467.823 371.794ZM486.815 391.952C495.045 397.046 504.434 399.5 514.75 399.5V385.5C506.733 385.5 499.955 383.62 494.184 380.048L486.815 391.952ZM514.75 399.5C524.788 399.5 534.108 397.021 542.561 392.026L535.439 379.973C529.225 383.645 522.379 385.5 514.75 385.5V399.5ZM542.518 392.052C550.789 387.243 557.395 380.51 562.311 372.002L550.189 364.998C546.438 371.49 541.545 376.423 535.482 379.948L542.518 392.052ZM562.276 372.061C567.307 363.548 569.75 353.962 569.75 343.5L555.75 343.5C555.75 351.704 553.859 358.786 550.223 364.939L562.276 372.061Z" fill="url(#paint0_linear_48_391)" mask="url(#path-1-outside-1_48_391)"/>
<path d="M336.75 459.75C322.417 459.75 308.167 458.5 294 456C280 453.5 266.917 449.25 254.75 443.25C242.583 437.25 232.333 429 224 418.5L268.5 372.25C272.333 376.75 277 381.167 282.5 385.5C288.167 389.833 295.083 393.417 303.25 396.25C311.583 399.083 321.667 400.5 333.5 400.5C344.5 400.5 354.083 398.583 362.25 394.75C370.417 390.917 376.75 385.333 381.25 378C385.917 370.667 388.25 361.75 388.25 351.25V346.25H463V355.75C463 378.417 457.333 397.5 446 413C434.833 428.5 419.75 440.167 400.75 448C381.75 455.833 360.417 459.75 336.75 459.75ZM388.25 350V316.75C386.75 320.083 382.917 324.917 376.75 331.25C370.75 337.583 362.75 343.333 352.75 348.5C342.75 353.5 331.083 356 317.75 356C297.75 356 280.25 351.167 265.25 341.5C250.25 331.667 238.583 318.583 230.25 302.25C221.917 285.75 217.75 267.5 217.75 247.5C217.75 227.5 221.917 209.333 230.25 193C238.583 176.5 250.25 163.333 265.25 153.5C280.25 143.667 297.75 138.75 317.75 138.75C330.583 138.75 341.833 140.833 351.5 145C361.167 149 369 153.833 375 159.5C381 165 385.167 170.083 387.5 174.75V144.75H463V350H388.25ZM292.25 247.5C292.25 256.833 294.417 265.25 298.75 272.75C303.083 280.083 308.833 285.833 316 290C323.333 294.167 331.417 296.25 340.25 296.25C349.417 296.25 357.5 294.167 364.5 290C371.5 285.833 377 280.083 381 272.75C385.167 265.25 387.25 256.833 387.25 247.5C387.25 238.167 385.167 229.833 381 222.5C377 215 371.5 209.167 364.5 205C357.5 200.667 349.417 198.5 340.25 198.5C331.417 198.5 323.333 200.667 316 205C308.833 209.167 303.083 215 298.75 222.5C294.417 229.833 292.25 238.167 292.25 247.5Z" fill="url(#paint1_linear_48_391)"/>
<path d="M698.512 222.575L840.7 282.862L840.7 319.425L698.512 380.037V337.137L790 301.062L698.512 265.312V222.575Z" fill="url(#paint2_linear_48_391)"/>
<mask id="path-5-outside-2_48_391" maskUnits="userSpaceOnUse" x="14" y="211" width="157" height="180" fill="black">
<rect fill="white" x="14" y="211" width="157" height="180"/>
<path d="M163.375 222.575V265.312L71.8875 301.062L163.375 337.137V380.037L21.35 319.425V282.862L163.375 222.575Z"/>
</mask>
<path d="M163.375 222.575H170.375L170.375 211.999L160.64 216.131L163.375 222.575ZM163.375 265.312L165.923 271.832L170.375 270.093V265.312H163.375ZM71.8875 301.062L69.3397 294.543L52.7302 301.033L69.3197 307.574L71.8875 301.062ZM163.375 337.137H170.375V332.373L165.943 330.625L163.375 337.137ZM163.375 380.037L160.627 386.476L170.375 390.636V380.037H163.375ZM21.35 319.425H14.35V324.048L18.6023 325.863L21.35 319.425ZM21.35 282.862L18.6148 276.419L14.35 278.229V282.862H21.35ZM156.375 222.575V265.312H170.375V222.575H156.375ZM160.827 258.793L69.3397 294.543L74.4352 307.582L165.923 271.832L160.827 258.793ZM69.3197 307.574L160.807 343.65L165.943 330.625L74.4553 294.55L69.3197 307.574ZM156.375 337.137V380.037H170.375L170.375 337.137L156.375 337.137ZM166.123 373.599L24.0976 312.987L18.6023 325.863L160.627 386.476L166.123 373.599ZM28.35 319.425V282.862H14.35V319.425H28.35ZM24.0851 289.306L166.11 229.018L160.64 216.131L18.6148 276.419L24.0851 289.306Z" fill="url(#paint3_linear_48_391)" mask="url(#path-5-outside-2_48_391)"/>
<defs>
<linearGradient id="paint0_linear_48_391" x1="434" y1="158.5" x2="602.5" y2="436" gradientUnits="userSpaceOnUse">
<stop stop-color="#7033FF"/>
<stop offset="1" stop-color="#5345F9"/>
</linearGradient>
<linearGradient id="paint1_linear_48_391" x1="349.5" y1="0" x2="349.5" y2="460" gradientUnits="userSpaceOnUse">
<stop stop-color="#7033FF"/>
<stop offset="1" stop-color="#5345F9"/>
</linearGradient>
<linearGradient id="paint2_linear_48_391" x1="766" y1="421" x2="766" y2="122" gradientUnits="userSpaceOnUse">
<stop stop-color="#5345F9"/>
<stop offset="1" stop-color="#7033FF"/>
</linearGradient>
<linearGradient id="paint3_linear_48_391" x1="44.0283" y1="139.875" x2="155.179" y2="317.007" gradientUnits="userSpaceOnUse">
<stop stop-color="#7033FF"/>
<stop offset="1" stop-color="#5345F9"/>
</linearGradient>
</defs>
</svg>
